<svg width="74" height="36" viewBox="0 0 74 36" fill="none" xmlns="http://www.w3.org/2000/svg">
<g clip-path="url(#clip0_327_3923)">
<path d="M34.6268 10.6281C34.4858 11.2098 33.9643 11.6195 33.3649 11.6195H20.1477C19.5491 11.6195 19.028 12.0282 18.8863 12.609L18.5525 13.9773C18.3535 14.7936 18.9725 15.5805 19.8139 15.5805H31.7749C32.614 15.5805 33.2327 16.3633 33.0375 17.1783L31.4206 23.9282C31.2809 24.5114 30.7586 24.9229 30.158 24.9229H16.9499C16.348 24.9229 15.8251 25.3359 15.6864 25.9208L13.9214 33.3686C13.7828 33.9534 13.2599 34.3664 12.6581 34.3664H2.25978C1.42026 34.3664 0.801496 33.5828 0.997365 32.7677L8.51226 1.49386C8.65232 0.910976 9.17435 0.5 9.77468 0.5H35.4314C36.2719 0.5 36.8909 1.28543 36.6932 2.10119L34.6268 10.6281Z" fill="#896CFE"/>
<path d="M62.671 0.500417C68.3165 0.500432 69.9959 0.804523 71.6741 1.97242C72.9458 2.8859 73.6071 4.46009 73.6071 6.49143C73.6071 9.74077 71.9287 13.3972 69.5891 15.1233C68.3797 16.0278 66.8223 16.6346 64.3222 17.1884C64.2772 17.1982 64.2411 17.2327 64.2299 17.2773C64.2122 17.3469 64.26 17.4167 64.3311 17.4274C66.6072 17.7686 67.1116 17.924 67.9099 18.3726C69.3848 19.2861 70.1483 20.6568 70.1483 22.638C70.1483 26.9035 67.554 31.3206 63.9931 33.0976C62.1623 33.961 59.6703 34.3673 55.4994 34.3673H35.0205C34.181 34.3673 33.5623 33.5837 33.7581 32.7686L41.2731 1.49469C41.4131 0.911811 41.9351 0.500834 42.5355 0.500834L62.671 0.500417Z" fill="#896CFE"/>
<path d="M47.4513 24.1837C48.1314 23.931 48.8198 23.5664 49.4659 23.0643C49.1782 22.879 48.9187 22.6822 48.6877 22.4728C48.152 21.9873 47.7708 21.4458 47.5162 20.9094C47.4123 20.6918 47.3307 20.4765 47.2637 20.2646C47.0917 20.3973 46.9154 20.5107 46.7322 20.6091C46.3488 20.8152 45.9384 20.9561 45.5156 21.0446C45.0933 21.133 44.6607 21.1689 44.2531 21.1689C43.6729 21.1689 43.1441 21.0964 42.7754 21.0245C42.5905 20.9886 42.4472 20.9536 42.3553 20.9295C42.3088 20.9179 42.2774 20.9077 42.2591 20.9028L42.2439 20.8985C41.3095 20.6025 40.3082 21.1146 40.006 22.0473C39.7027 22.9825 40.2175 23.9861 41.1539 24.2889C41.2091 24.3064 41.5496 24.4141 42.0925 24.52C42.6358 24.6251 43.3809 24.7294 44.252 24.7303C44.797 24.7303 45.3902 24.6894 46.0136 24.5759C46.4807 24.4908 46.9635 24.3656 47.4513 24.1837Z" fill="#E2F163"/>
<path d="M60.8242 28.5228H59.0626C59.0923 28.4068 59.1118 28.2866 59.1183 28.1624C59.1198 28.1348 59.1242 28.0389 59.1242 27.8862C59.1242 27.5284 59.1015 26.8585 58.9561 26.0142C58.8468 25.3811 58.6679 24.6503 58.3678 23.881C58.1429 23.3047 57.8487 22.7065 57.4611 22.1192C57.1701 21.6795 56.8269 21.2458 56.4235 20.8379C55.8185 20.2255 55.0745 19.6708 54.1926 19.2378C54.1846 19.2336 54.1753 19.2294 54.1661 19.2253L57.029 13.2221L57.1626 12.9043C57.7336 11.5437 57.0907 9.97949 55.7282 9.40973C55.5368 9.32963 55.341 9.27458 55.1447 9.24123C54.9766 9.17861 54.8036 9.14277 54.6306 9.13192C54.5895 9.12356 54.5462 9.11525 54.4986 9.10607C54.1067 9.03266 53.506 8.94922 52.756 8.94922C51.7574 8.94841 50.4857 9.09857 49.0745 9.60659C47.6627 10.113 46.1201 10.9798 44.5868 12.3629C43.8552 13.0211 43.7979 14.1473 44.4571 14.8772C45.1167 15.6073 46.2445 15.6647 46.976 15.0066C48.1834 13.9204 49.3043 13.3097 50.2835 12.956C50.6636 12.8192 51.0231 12.7224 51.3589 12.654L48.8771 17.8822C48.8755 17.888 48.8738 17.8955 48.8712 17.9064C48.8647 17.9373 48.8538 17.989 48.8425 18.0574C48.8209 18.195 48.7976 18.3994 48.7976 18.6439C48.7976 18.9191 48.8268 19.2428 48.916 19.5781C49.0058 19.9144 49.1518 20.2606 49.3908 20.6001C49.5509 20.8262 49.752 21.0506 50.012 21.2667C50.297 21.5035 50.6554 21.7313 51.1085 21.9357C51.5481 22.0224 51.9325 22.1401 52.2726 22.2778C52.6663 22.4379 53.0004 22.6265 53.2929 22.8358C53.8033 23.202 54.1921 23.6333 54.503 24.1089C54.7349 24.4652 54.9209 24.8464 55.0658 25.2284C55.2843 25.8015 55.4113 26.3787 55.4789 26.8576C55.5476 27.3357 55.5573 27.7135 55.5573 27.8871C55.5573 27.9304 55.5568 27.9605 55.5568 27.9772L55.5556 27.9906C55.5469 28.1749 55.5681 28.3534 55.6125 28.5236H46.5706C46.2013 28.5236 45.9023 28.8223 45.9023 29.1909C45.9023 29.5597 46.2013 29.8584 46.5706 29.8584H60.8247C61.1939 29.8584 61.4935 29.5597 61.4935 29.1909C61.4924 28.8214 61.1934 28.5228 60.8242 28.5228Z" fill="#E2F163"/>
<path d="M43.3284 28.521H41.7181C41.3489 28.521 41.0498 28.8197 41.0498 29.1885C41.0498 29.5571 41.3489 29.8558 41.7181 29.8558H43.3284C43.6981 29.8558 43.9971 29.5571 43.9971 29.1885C43.9971 28.8197 43.6981 28.521 43.3284 28.521Z" fill="#E2F163"/>
<path d="M57.3375 9.03939C58.5124 9.03939 59.4651 8.08845 59.4651 6.91547C59.4651 5.74243 58.5124 4.7915 57.3375 4.7915C56.1621 4.7915 55.21 5.74243 55.21 6.91547C55.21 8.08845 56.1621 9.03939 57.3375 9.03939Z" fill="#E2F163"/>
</g>
<defs>
<clipPath id="clip0_327_3923">
<rect width="74" height="35" fill="white" transform="translate(0 0.5)"/>
</clipPath>
</defs>
</svg>
