<svg width="292" height="200" viewBox="0 0 292 200" fill="none" xmlns="http://www.w3.org/2000/svg">
<g clip-path="url(#clip0_305_2637)">
<path d="M135.408 34.9761C135.3 35.425 134.898 35.7411 134.436 35.7411H87.088C86.6268 35.7411 86.2254 36.0566 86.1164 36.5047L83.5052 47.2363C83.352 47.8659 83.8289 48.4728 84.4769 48.4728H130.859C131.505 48.4728 131.981 49.0766 131.831 49.7052L125.134 77.7346C125.027 78.1847 124.624 78.5023 124.161 78.5023H76.8183C76.3546 78.5023 75.9518 78.821 75.8451 79.2722L69.034 108.086C68.9273 108.538 68.5245 108.856 68.0608 108.856H28.2104C27.5638 108.856 27.0872 108.252 27.2379 107.623L52.8496 0.766922C52.9574 0.317161 53.3595 0 53.822 0H142.593C143.24 0 143.717 0.605731 143.565 1.23496L135.408 34.9761Z" fill="#896CFE"/>
<path d="M225.905 0.0013405C225.905 0.000600163 225.906 -1.50719e-10 225.907 1.86958e-09C244.007 4.93952e-05 249.389 0.978824 254.77 4.73277C258.847 7.66896 260.967 12.7289 260.967 19.2582C260.967 29.7025 255.586 41.4552 248.085 47.0033C244.207 49.9109 239.214 51.8613 231.199 53.641C231.055 53.673 230.939 53.7839 230.903 53.9271C230.846 54.1509 230.999 54.3752 231.228 54.4095C238.525 55.5063 240.142 56.0061 242.701 57.4474C247.43 60.3838 249.878 64.7894 249.878 71.1579C249.878 84.8681 241.56 99.0665 230.144 104.778C224.274 107.553 216.284 108.859 202.912 108.859H133.243C132.597 108.859 132.12 108.255 132.271 107.626L157.882 0.769604C157.99 0.319843 158.392 0.002681 158.855 0.002681H225.904C225.905 0.002681 225.905 0.00208084 225.905 0.0013405Z" fill="#896CFE"/>
<path d="M219.368 52.6693C215.44 52.0418 212.016 49.7384 209.927 46.4214L204.567 57.6915C208.142 60.9602 212.635 63.1806 217.562 63.9689C220.68 64.4675 223.612 62.3438 224.109 59.2227C224.61 56.1015 222.487 53.1679 219.368 52.6693Z" fill="#E2F163"/>
<path d="M177.105 76.1271C179.286 75.3147 181.493 74.1429 183.564 72.5287C182.642 71.9333 181.81 71.3006 181.07 70.6275C179.352 69.0669 178.13 67.3266 177.313 65.6025C176.98 64.9026 176.719 64.2107 176.504 63.5298C175.952 63.9561 175.387 64.3207 174.8 64.6372C173.57 65.2994 172.255 65.7526 170.899 66.0369C169.545 66.3211 168.158 66.4365 166.851 66.4365C164.991 66.4365 163.296 66.2031 162.114 65.9725C161.521 65.8572 161.061 65.7446 160.767 65.6668C160.618 65.6294 160.517 65.5971 160.458 65.581L160.41 65.5676H160.406C157.411 64.6157 154.204 66.2621 153.235 69.26C152.262 72.2659 153.913 75.4916 156.915 76.4651C157.092 76.5213 158.184 76.8672 159.924 77.2078C161.666 77.5458 164.055 77.8809 166.848 77.8835C168.595 77.8835 170.497 77.7522 172.496 77.3875C173.993 77.1139 175.541 76.7118 177.105 76.1271Z" fill="#E2F163"/>
<path d="M219.985 90.0737H214.337C214.433 89.701 214.495 89.3148 214.516 88.9153C214.521 88.8268 214.535 88.5185 214.535 88.0277C214.535 86.8775 214.462 84.7243 213.996 82.0105C213.646 79.9753 213.072 77.6264 212.11 75.154C211.389 73.3011 210.446 71.3785 209.203 69.4909C208.27 68.0777 207.169 66.6833 205.876 65.3721C203.936 63.404 201.551 61.6207 198.724 60.2291C198.698 60.2156 198.668 60.2023 198.639 60.1889L207.818 40.8931L208.246 39.8716C210.076 35.4981 208.015 30.4703 203.647 28.6389C203.033 28.3815 202.406 28.2045 201.776 28.0973C201.237 27.896 200.682 27.7808 200.128 27.746C199.996 27.7191 199.857 27.6924 199.705 27.6629C198.448 27.4269 196.522 27.1587 194.118 27.1587C190.916 27.1561 186.839 27.6388 182.314 29.2716C177.788 30.8993 172.842 33.6854 167.926 38.1313C165.581 40.2468 165.397 43.8669 167.51 46.2132C169.625 48.5595 173.241 48.7444 175.586 46.6287C179.457 43.1375 183.051 41.1747 186.19 40.0378C187.409 39.598 188.562 39.2869 189.638 39.0671L181.682 55.8717C181.676 55.8905 181.671 55.9146 181.662 55.9495C181.642 56.0487 181.607 56.2149 181.571 56.4349C181.501 56.8773 181.427 57.5343 181.427 58.3199C181.427 59.2049 181.52 60.2453 181.806 61.3232C182.094 62.4038 182.562 63.5166 183.328 64.6079C183.841 65.3346 184.486 66.0558 185.32 66.7505C186.234 67.5119 187.383 68.2439 188.836 68.9009C190.245 69.1799 191.478 69.5579 192.568 70.0003C193.83 70.5152 194.901 71.1212 195.839 71.7942C197.475 72.9713 198.722 74.3577 199.719 75.8861C200.462 77.0312 201.059 78.2565 201.523 79.4847C202.224 81.3268 202.631 83.1823 202.848 84.7215C203.068 86.2579 203.099 87.4727 203.099 88.0305C203.099 88.1698 203.097 88.2664 203.097 88.32L203.094 88.3629H203.097C203.069 88.9555 203.134 89.5295 203.276 90.0765H174.286C173.102 90.0765 172.144 91.0364 172.144 92.2215C172.144 93.4068 173.102 94.3667 174.286 94.3667H219.987C221.171 94.3667 222.131 93.4068 222.131 92.2215C222.128 91.0336 221.169 90.0737 219.985 90.0737Z" fill="#E2F163"/>
<path d="M163.889 90.0684H158.727C157.543 90.0684 156.584 91.0283 156.584 92.2136C156.584 93.3989 157.543 94.3588 158.727 94.3588H163.889C165.075 94.3588 166.033 93.3989 166.033 92.2136C166.033 91.0283 165.075 90.0684 163.889 90.0684Z" fill="#E2F163"/>
<path d="M208.804 27.4474C212.571 27.4474 215.625 24.3908 215.625 20.6205C215.625 16.85 212.571 13.7935 208.804 13.7935C205.035 13.7935 201.982 16.85 201.982 20.6205C201.982 24.3908 205.035 27.4474 208.804 27.4474Z" fill="#E2F163"/>
<path d="M40.6244 150.15C41.2448 150.15 41.7155 150.709 41.6098 151.32L40.0835 160.146C40.0005 160.626 39.5846 160.976 39.0981 160.976H21.2243C20.7394 160.976 20.3244 161.324 20.2397 161.801L19.0688 168.406C18.9602 169.019 19.4313 169.581 20.0534 169.581H32.0245C32.6455 169.581 33.1163 170.141 33.0097 170.753L31.5556 179.092C31.4721 179.571 31.0564 179.92 30.5704 179.92H17.8959C17.411 179.92 16.996 180.268 16.9113 180.746L13.8064 198.248C13.7217 198.726 13.3067 199.074 12.8218 199.074H1.19274C0.570663 199.074 0.0995506 198.512 0.20807 197.899L8.52127 150.975C8.60588 150.498 9.02095 150.15 9.50594 150.15H40.6244ZM59.9357 150.15C60.5572 150.15 61.0281 150.711 60.9206 151.323L52.6739 198.247C52.5898 198.725 52.1745 199.074 51.689 199.074H40.0612C39.4392 199.074 38.9681 198.512 39.0766 197.899L47.3898 150.975C47.4744 150.498 47.8895 150.15 48.3745 150.15H59.9357ZM104.491 150.15C105.114 150.15 105.585 150.713 105.475 151.326L103.892 160.152C103.807 160.629 103.392 160.976 102.908 160.976H91.6169C91.1317 160.976 90.7165 161.324 90.6322 161.802L84.1979 198.248C84.1135 198.725 83.6983 199.074 83.2131 199.074H71.5838C70.962 199.074 70.4909 198.512 70.599 197.9L76.9106 162.15C77.0187 161.537 76.5476 160.976 75.9258 160.976H65.4158C64.7929 160.976 64.3216 160.412 64.4315 159.799L66.0144 150.973C66.0998 150.497 66.5145 150.15 66.9987 150.15H104.491ZM142.473 162.988C141.963 165.857 140.762 168.239 138.867 170.136C137.984 171.02 137.005 171.788 135.931 172.44C135.029 172.988 135.094 175.157 135.931 175.799C136.547 176.269 137.109 176.834 137.619 177.491C139.051 179.296 139.769 181.447 139.769 183.945C139.769 184.686 139.699 185.403 139.561 186.097C139.145 188.55 138.127 190.77 136.51 192.759C134.937 194.702 132.857 196.253 130.269 197.408C127.679 198.519 124.767 199.074 121.532 199.074H104.697C104.075 199.074 103.604 198.511 103.713 197.899L111.955 151.53C112.04 151.053 112.455 150.705 112.94 150.705H129.437C133.781 150.705 137.064 151.63 139.283 153.481C141.547 155.332 142.681 157.737 142.681 160.698C142.681 161.438 142.612 162.202 142.473 162.988ZM135.955 163.752C136.047 163.335 136.094 162.757 136.094 162.017C136.094 160.027 135.4 158.477 134.013 157.367C132.627 156.257 130.616 155.702 127.981 155.702H118.349C117.864 155.702 117.449 156.05 117.364 156.527L114.876 170.558C114.767 171.17 115.238 171.732 115.86 171.732H125.277C128.189 171.732 130.591 171.038 132.488 169.65C134.383 168.216 135.539 166.25 135.955 163.752ZM133.32 185.472C133.459 184.825 133.528 184.223 133.528 183.668C133.528 181.541 132.741 179.851 131.17 178.602C129.598 177.353 127.449 176.728 124.722 176.728H114.606C114.12 176.728 113.705 177.077 113.621 177.555L110.921 192.904C110.814 193.516 111.285 194.077 111.906 194.077H121.879C124.975 194.077 127.541 193.314 129.576 191.787C131.609 190.26 132.857 188.156 133.32 185.472ZM168.079 199.56C164.057 199.56 160.52 198.727 157.469 197.061C154.419 195.351 152.037 192.967 150.327 189.913C148.663 186.86 147.831 183.368 147.831 179.435C147.831 173.977 149.055 169.026 151.506 164.584C154.002 160.097 157.423 156.581 161.769 154.036C166.113 151.445 170.967 150.15 176.33 150.15C180.397 150.15 183.957 151.006 187.008 152.718C190.104 154.383 192.486 156.743 194.15 159.796C195.815 162.803 196.647 166.273 196.647 170.205C196.647 175.711 195.399 180.708 192.902 185.194C190.451 189.636 187.053 193.152 182.709 195.743C178.363 198.288 173.487 199.56 168.079 199.56ZM168.98 193.869C173.047 193.869 176.677 192.828 179.866 190.746C183.101 188.619 185.622 185.774 187.424 182.21C189.227 178.649 190.129 174.785 190.129 170.622C190.129 166.042 188.811 162.433 186.176 159.796C183.541 157.159 179.958 155.84 175.429 155.84C171.36 155.84 167.708 156.905 164.473 159.033C161.283 161.115 158.787 163.937 156.984 167.499C155.226 171.015 154.349 174.854 154.349 179.018C154.349 183.598 155.642 187.231 158.232 189.913C160.867 192.55 164.449 193.869 168.98 193.869ZM224.183 150.705C231.071 150.705 236.41 152.371 240.201 155.702C244.037 159.033 245.956 163.659 245.956 169.581C245.956 171.431 245.795 173.236 245.471 174.993C244.592 179.945 242.789 184.247 240.062 187.901C237.381 191.51 233.938 194.285 229.731 196.228C225.57 198.126 220.855 199.074 215.585 199.074H201.732C201.11 199.074 200.638 198.511 200.747 197.899L208.99 151.53C209.075 151.053 209.49 150.705 209.975 150.705H224.183ZM216.487 194.216C222.681 194.216 227.72 192.528 231.603 189.15C235.486 185.727 237.96 181.008 239.022 174.993C239.3 173.328 239.438 171.755 239.438 170.275C239.438 165.695 238.074 162.155 235.347 159.657C232.62 157.113 228.599 155.84 223.282 155.84H215.384C214.899 155.84 214.484 156.188 214.399 156.666L207.958 193.042C207.849 193.654 208.32 194.216 208.942 194.216H216.487ZM290.079 150.705C290.888 150.705 291.363 151.616 290.899 152.278L271.047 180.642C270.964 180.761 270.907 180.897 270.882 181.04L267.809 198.25C267.724 198.726 267.309 199.074 266.824 199.074H262.546C261.923 199.074 261.452 198.511 261.562 197.898L264.564 181.081C264.595 180.912 264.581 180.737 264.524 180.575L254.536 152.035C254.309 151.385 254.791 150.705 255.48 150.705H260.407C260.845 150.705 261.232 150.99 261.362 151.409L268.077 173.051C268.327 173.856 269.4 174.01 269.866 173.307L284.561 151.152C284.747 150.873 285.059 150.705 285.395 150.705H290.079Z" fill="#E2F163"/>
</g>
<defs>
<clipPath id="clip0_305_2637">
<rect width="292" height="200" fill="white"/>
</clipPath>
</defs>
</svg>
